# xmcd CD database file
#
# Track frame offsets:
#	150
#	9532
#	22988
#	32538
#	43122
#	56218
#	66376
#	75957
#	90831
#	102647
#	114134
#	126386
#	132477
#	142798
#	153904
#	164621
#	174589
#	185672
#	199417
#	209575
#	220648
#	230739
#	238712
#	246054
#	256300
#	267467
#	276035
#	289116
#	300239
#
# Disc length: 4145 seconds
#
# Revision: 0
# Processed by: cddbd v1.5.2PL0 Copyright (c) Steve Scherf et al.
# Submitted via: CDex 1.51
#
DISCID=a0102f1d
DTITLE=Various Artist - Custom Made Hillbilly Vol.4
DYEAR=1900
DGENRE=Hillbilly
TTITLE0=Hoyt Scroggins and Saturday Night Jamboree Boys/Tennessee Rock
TTITLE1=Hoyt Scroggins and Saturday Night Jamboree Boys/Why Do We Fall In Love
TTITLE2=Jack Frost and His Band/There Is No Tomorrow
TTITLE3=Al Clauser and His Oklahoma Outlaws/Who's Foolin' Who
TTITLE4=Don Collins/ Too Late To Be Sorry
TTITLE5=Dorothy Blakley/Piano Bells (Instr.)
TTITLE6=Cowboy Huff/What's Gonna Happen To Me
TTITLE7=Cowboy Huff/Patonia (Pride Of The Plains)
TTITLE8=Bill Bolan and Country Melody Boys/Country Music
TTITLE9=Lucky Hill/It's Coming Home To You
TTITLE10=Bob Cole/Face To Face
TTITLE11=Willie Nelson/No Place For Me
TTITLE12=Trice Garner/Tombigbee
TTITLE13=Trice Garner/Lover's Hill
TTITLE14=Zeke Wilson and Prairie Playboys/My Heart Needs A Vacation
TTITLE15=Buddy Shaw/Second Place
TTITLE16=Little Jody Rainwater and Jamboree Gang/The Man That Wrote Home Sweet Home
TTITLE17=Ramblin' Red Bailey/The Hardest Fall
TTITLE18=Joyce Love and Curley Saunder's Santones/Why Did You Leave Me
TTITLE19=Lee Voorhies and His Ozark Country Boys/Hand In Hand
TTITLE20=Johnny Skiles and Harmony Ranch Boys/The Twinkle In Your Eyes
TTITLE21=Gene Ray/Rock and Roll Fever
TTITLE22=Jeanie Christie and Earl Durrance's Blue Sky Ramblers/Flying High
TTITLE23=Jeanie Christie and Earl Durrance's Blue Sky Ramblers/Sunshine
TTITLE24=Bill Johnson and The Dabblers/Lonesome Daddy Blues
TTITLE25=Harry Peppel and Shanandoah Valley Rangers/Thermostat Baby
TTITLE26=Fuzzy Whitener w Jerry Dykes' Band/Why Do I Love You
TTITLE27=Lewis Pruitt and The True Lads/I'm In A Daze
TTITLE28=Lewis Pruitt and The True Lads/Pretty Baby
EXTD=
EXTT0=
EXTT1=
EXTT2=
EXTT3=
EXTT4=
EXTT5=
EXTT6=
EXTT7=
EXTT8=
EXTT9=
EXTT10=
EXTT11=
EXTT12=
EXTT13=
EXTT14=
EXTT15=
EXTT16=
EXTT17=
EXTT18=
EXTT19=
EXTT20=
EXTT21=
EXTT22=
EXTT23=
EXTT24=
EXTT25=
EXTT26=
EXTT27=
EXTT28=
PLAYORDER=
